# xmcd CD database file
#
# Track frame offsets:
#	150
#	27497
#	46265
#	72000
#	87987
#	111105
#	126497
#	149045
#	171082
#	190562
#	213232
#
# Disc length: 3100 seconds
#
# Revision: 0
# Processed by: cddbd v1.5.2PL0 Copyright (c) Steve Scherf et al.
# Submitted via: CDex 1.70beta2
#
DISCID=9e0c1a0b
DTITLE=Various Artist - JAZZY GROOVE
DYEAR=1994
DGENRE=Jazz
TTITLE0=Now Or Never - Lalomie Washburn
TTITLE1=Blowing - Ever. C
TTITLE2=Right Time - Bee La Key
TTITLE3=Warm Weather - e<c>a (Desire)
TTITLE4=Time To Stop Running - Victoria Wilson - James
TTITLE5=Going On - AlBare
TTITLE6=Take Me - Lalomie Washburn
TTITLE7=Bottom Line - Albare
TTITLE8=MIDNIGHT SKAT - Albare
TTITLE9=Can't Say - Albare
TTITLE10=When Will I Cry - e<c>a (Desire)
EXTD=YEAR: 1994
EXTT0=
EXTT1=
EXTT2=
EXTT3=
EXTT4=
EXTT5=
EXTT6=
EXTT7=
EXTT8=
EXTT9=
EXTT10=
PLAYORDER=
